Coordinates
version=1
nRows=43
nColumns=12
inDegrees=yes

Units are S.I. units (second, meters, Newtons, ...)
Angles are in degrees

endheader
time	SC_y	SC_z	SC_x	AC_y	AC_z	AC_x	GH_y	GH_z	GH_yy	EL_x	PS_y
       0.0              -37.74         -4.633          41.25          36.73          9.129          4.147          142.4          34.74          173.7          103.8          83.47
   0.03886              -37.73         -4.631          41.24          36.74          9.129          4.145          142.4          34.74          173.7          103.8          83.48
   0.07772              -37.73         -4.628          41.24          36.74          9.128          4.143          142.4          34.74          173.7          103.8          83.48
    0.1166              -37.73         -4.626          41.23          36.74          9.128          4.141          142.4          34.74          173.7          103.8          83.48
    0.1554              -37.73         -4.624          41.22          36.74          9.127          4.139          142.4          34.73          173.7          103.8          83.48
    0.1943              -37.72         -4.621          41.22          36.74          9.127          4.136          142.4          34.73          173.6          103.8          83.49
    0.2332              -37.72         -4.618          41.21          36.75          9.126          4.134          142.4          34.73          173.6          103.8          83.49
     0.272              -37.72         -4.615           41.2          36.75          9.125          4.131          142.4          34.73          173.6          103.8           83.5
    0.3109              -37.72         -4.612          41.19          36.75          9.124          4.128          142.4          34.73          173.6          103.8           83.5
    0.3497              -37.71         -4.608          41.18          36.75          9.124          4.125          142.4          34.73          173.6          103.8           83.5
    0.3886              -37.71         -4.604          41.17          36.76          9.123          4.122          142.4          34.72          173.5          103.8          83.51
    0.4275               -37.7           -4.6          41.16          36.76          9.122          4.118          142.4          34.72          173.5          103.8          83.51
    0.4663               -37.7         -4.596          41.15          36.76          9.121          4.114          142.4          34.72          173.5          103.8          83.52
    0.5052              -37.69         -4.591          41.14          36.77           9.12           4.11          142.4          34.72          173.4          103.9          83.53
     0.544              -37.69         -4.586          41.12          36.77          9.118          4.105          142.4          34.71          173.4          103.9          83.53
    0.5829              -37.68          -4.58          41.11          36.78          9.117            4.1          142.4          34.71          173.4          103.9          83.54
    0.6218              -37.68         -4.574          41.09          36.78          9.116          4.094          142.4          34.71          173.3          103.9          83.55
    0.6606              -37.67         -4.567          41.07          36.79          9.114          4.089          142.4           34.7          173.3          103.9          83.56
    0.6995              -37.66          -4.56          41.06          36.79          9.112          4.082          142.4           34.7          173.2          103.9          83.56
    0.7383              -37.65         -4.552          41.03           36.8           9.11          4.075          142.4          34.69          173.2          103.9          83.57
    0.7772              -37.65         -4.543          41.01          36.81          9.108          4.067          142.5          34.69          173.1          104.0          83.59
    0.8161              -37.64         -4.534          40.99          36.81          9.106          4.059          142.5          34.68          173.0          104.0           83.6
    0.8549              -37.62         -4.523          40.96          36.82          9.104          4.049          142.5          34.68          173.0          104.0          83.61
    0.8938              -37.61         -4.511          40.93          36.83          9.101          4.039          142.5          34.67          172.9          104.0          83.63
    0.9326               -37.6         -4.498          40.89          36.84          9.098          4.027          142.5          34.66          172.8          104.1          83.64
    0.9715              -37.58         -4.484          40.85          36.86          9.094          4.014          142.5          34.65          172.7          104.1          83.66
      1.01              -37.57         -4.467          40.81          36.87           9.09          3.999          142.5          34.64          172.6          104.2          83.68
     1.049              -37.55         -4.449          40.76          36.88          9.086          3.983          142.5          34.63          172.4          104.2           83.7
     1.088              -37.53         -4.428           40.7           36.9          9.081          3.964          142.5          34.62          172.3          104.2          83.73
     1.127               -37.5         -4.404          40.64          36.92          9.076          3.943          142.5          34.61          172.1          104.3          83.76
     1.166              -37.48         -4.377          40.57          36.94          9.069          3.919          142.6          34.59          171.9          104.4          83.79
     1.205              -37.45         -4.346          40.49          36.97          9.062          3.891          142.6          34.57          171.7          104.4          83.83
     1.244              -37.41         -4.311          40.39          36.99          9.054           3.86          142.6          34.55          171.5          104.5          83.88
     1.282              -37.37         -4.269          40.28          37.03          9.044          3.822          142.6          34.53          171.2          104.6          83.93
     1.321              -37.32         -4.221          40.15          37.07          9.032          3.779          142.7           34.5          170.8          104.8          83.99
      1.36              -37.26         -4.163           40.0          37.11          9.019          3.728          142.7          34.46          170.4          104.9          84.06
     1.399              -37.19         -4.095          39.82          37.17          9.003          3.667          142.7          34.42          170.0          105.1          84.15
     1.438              -37.11         -4.014           39.6          37.23          8.984          3.594          142.8          34.38          169.4          105.3          84.25
     1.477              -37.01         -3.915          39.34          37.31           8.96          3.506          142.9          34.32          168.7          105.5          84.38
     1.516              -36.88         -3.795          39.02          37.41          8.932          3.399          142.9          34.25          167.9          105.8          84.53
     1.554              -36.73         -3.646          38.62          37.53          8.897          3.266          143.0          34.16          166.8          106.1          84.72
     1.593              -36.54          -3.46          38.13          37.68          8.853            3.1          143.2          34.05          165.5          106.6          84.95
     1.632              -36.31         -3.227          37.51          37.87          8.798          2.892          143.3          33.91          163.9          107.2          85.25
